<?xml version="1.0" encoding="utf-8"?>
<svg xmlns="http://www.w3.org/2000/svg" width="128" height="128" viewBox="0 0 128 128">
  <circle id="Ellipse_1" data-name="Ellipse 1" cx="64" cy="64" r="64" fill="#990080"/>
  <path id="shield-check-regular" d="M41.76,40.358a2.118,2.118,0,0,0-2.975-.018l-3.972,3.938a2.118,2.118,0,0,0-.017,2.975l15.89,16.012a2.118,2.118,0,0,0,2.975.018l30.2-29.96a2.118,2.118,0,0,0,.018-2.975l-3.937-3.972a2.118,2.118,0,0,0-2.975-.017L52.225,50.893Zm53.078-25.69-33.6-14a8.426,8.426,0,0,0-6.457,0l-33.6,14A8.391,8.391,0,0,0,16,22.421c0,34.737,20.038,58.747,38.763,66.552a8.426,8.426,0,0,0,6.457,0c15-6.247,38.78-27.825,38.78-66.552A8.4,8.4,0,0,0,94.838,14.668ZM58,81.221c-17.062-7.105-33.6-29.172-33.6-58.8l33.6-14,33.6,14C91.6,52.836,74.38,74.4,58,81.221Z" transform="translate(6 20.975)" fill="#fff"/>
</svg>
