<svg xmlns="http://www.w3.org/2000/svg" xmlns:xlink="http://www.w3.org/1999/xlink" width="16" height="16" viewBox="0 0 16 16">
  <defs>
    <clipPath id="clip-basicauth-icon-mask">
      <rect width="16" height="16"/>
    </clipPath>
  </defs>
  <g id="basicauth-icon-mask" clip-path="url(#clip-basicauth-icon-mask)">
    <path d="M20.6,7.228a.378.378,0,0,0-.531,0l-.709.7a.378.378,0,0,0,0,.531l2.838,2.86a.378.378,0,0,0,.531,0L28.12,5.972a.378.378,0,0,0,0-.531l-.7-.709a.378.378,0,0,0-.531,0L22.469,9.109ZM30.079,2.64l-6-2.5a1.5,1.5,0,0,0-1.153,0l-6,2.5A1.5,1.5,0,0,0,16,4.025c0,6.2,3.578,10.492,6.923,11.886a1.5,1.5,0,0,0,1.153,0C26.754,14.794,31,10.941,31,4.025A1.5,1.5,0,0,0,30.079,2.64ZM23.5,14.526c-3.047-1.269-6-5.21-6-10.5l6-2.5,6,2.5C29.5,9.456,26.426,13.307,23.5,14.526Z" transform="translate(-15.5 -0.025)" fill="currentColor"/>
  </g>
</svg>
